<?xml version="1.0" encoding="utf-8"?>
<!-- Generator: Adobe Illustrator 23.1.0, SVG Export Plug-In . SVG Version: 6.00 Build 0)  -->
<svg version="1.1" id="Layer_1" xmlns="http://www.w3.org/2000/svg" xmlns:xlink="http://www.w3.org/1999/xlink" x="0px" y="0px"
	 viewBox="0 0 392.9 129" style="enable-background:new 0 0 392.9 129;" xml:space="preserve">
<style type="text/css">
	.st0{fill:#EC1C24;}
	.st1{fill:#FFFFFF;}
</style>
<title>logo-anhkhue-watch</title>
<g>
	<path class="st0" d="M37.9,125.8l82.1-82c0.5-0.5,0.5-1.3,0-1.8c-0.4-0.4-0.9-0.5-1.4-0.3L19.2,83c-0.3,0.1-0.5,0.3-0.7,0.6
		L0.5,119.9c-1.1,2.1-0.2,4.8,1.9,5.8c0.6,0.3,1.3,0.5,2,0.5H37C37.3,126.2,37.6,126.1,37.9,125.8z"/>
	<path class="st1" d="M85.9,49L63.7,4.5C62.9,3,61,2.4,59.5,3.1c-0.6,0.3-1.1,0.8-1.4,1.4L22.8,75.3L85.9,49z"/>
	<path class="st1" d="M78.6,95.6l41.9,28c0.6,0.4,1.4,0.2,1.8-0.3c0.3-0.4,0.3-0.9,0.1-1.3L99.1,75.3c-0.3-0.6-1.1-0.9-1.7-0.6
		c-0.1,0.1-0.2,0.1-0.3,0.2L78.4,93.6c-0.5,0.5-0.5,1.3,0,1.8C78.4,95.5,78.5,95.5,78.6,95.6z"/>
	<path class="st0" d="M107.9,62.6c0,5.3-0.9,10.6-2.7,15.7l2.4,4.9c2.8-6.5,4.3-13.4,4.3-20.5c0-1.6-0.1-3.1-0.2-4.7l-3.9,3.8
		C107.9,62.1,107.9,62.3,107.9,62.6z"/>
	<path class="st0" d="M60.9,109.6h-0.8l-3.9,3.8c1.6,0.1,3.1,0.2,4.7,0.2c9.3,0,18.4-2.5,26.3-7.3l-3.7-2.5
		C76.6,107.7,68.8,109.6,60.9,109.6z"/>
	<path class="st1" d="M103.8,43.3l3.8-1.6c-6.5-14.6-19.5-25.2-35-28.9l2.4,4.8C87.8,21.8,98.3,31.1,103.8,43.3z"/>
	<path class="st1" d="M15.7,79.9l0.8-1.7c-8.7-24.5,4.2-51.3,28.6-60c0.5-0.2,1.1-0.4,1.6-0.5l2.4-4.8C21.8,19.3,4.8,46.7,11.2,74.1
		c0.7,3.1,1.7,6.1,3,9L15.7,79.9L15.7,79.9z"/>
	<rect x="305.3" y="84.7" class="st0" width="4.6" height="20"/>
	<rect x="318.6" y="84.7" class="st0" width="4.6" height="20"/>
	<rect x="305.3" y="92.3" class="st0" width="17.9" height="4.6"/>
	<rect x="266.9" y="84.7" class="st0" width="4.6" height="20"/>
	<rect x="260.3" y="84.7" class="st0" width="17.9" height="4.6"/>
	<polygon class="st0" points="242.4,104.6 237.8,104.6 244.4,84.7 249.1,84.7 	"/>
	<polygon class="st0" points="251,104.6 255.7,104.6 249.1,84.7 244.4,84.7 	"/>
	<polygon class="st0" points="219.2,104.6 214.6,104.6 209.9,84.7 214.6,84.7 	"/>
	<polygon class="st0" points="214.6,104.6 219.2,104.6 223.9,84.7 219.2,84.7 	"/>
	<polygon class="st0" points="228.5,104.6 223.9,104.6 219.2,84.7 223.9,84.7 	"/>
	<polygon class="st0" points="223.9,104.6 228.5,104.6 233.2,84.7 228.5,84.7 	"/>
	<path class="st0" d="M300.7,97.1c-0.4,2.1-1.5,4.1-3.2,5.5c-1.5,1.4-3.5,2.1-5.6,2.1c-2.5,0-4.8-1-6.5-2.9
		c-3.6-4.1-3.6-10.1,0-14.2c3.2-3.5,8.7-3.8,12.2-0.6c0.7,0.6,1.3,1.4,1.8,2.2c0.6,1,1,2,1.2,3.2H296c-0.7-2.2-2.1-3.3-4.1-3.3
		c-1.3,0-2.6,0.6-3.4,1.7c-0.9,1.1-1.3,2.5-1.3,3.9c0,1.4,0.4,2.9,1.3,4c0.8,1.1,2,1.8,3.4,1.8c1.9,0,3.3-1.1,4.2-3.2L300.7,97.1z"
		/>
	<path class="st1" d="M349.5,41.7v18.9c0,0.7-0.2,1.3-0.5,1.9c-0.3,0.6-0.8,1.1-1.3,1.5c-0.5,0.4-1.2,0.8-1.8,1
		c-0.7,0.2-1.5,0.4-2.2,0.3c-0.7,0-1.5-0.1-2.1-0.3c-0.7-0.2-1.3-0.6-1.8-1c-0.5-0.4-1-0.9-1.3-1.5c-0.3-0.6-0.5-1.2-0.5-1.9V41.7
		h-9.3v20.3c0,1.4,0.3,2.8,0.8,4.1c0.5,1.3,1.3,2.5,2.3,3.5c1,1.1,2.2,2,3.5,2.7c1.3,0.8,2.8,1.4,4.3,1.8c0.7,0.2,1.4,0.3,2.1,0.4
		c0.7,0.1,1.4,0.2,2.1,0.2c0.7,0,1.4-0.1,2.1-0.2c0.7-0.1,1.4-0.3,2.1-0.4c1.5-0.4,3-1,4.3-1.8c1.3-0.7,2.5-1.6,3.5-2.7
		c1-1,1.7-2.2,2.3-3.5c0.5-1.3,0.8-2.7,0.8-4.1V41.7H349.5z"/>
	<polygon class="st1" points="199.2,59.9 187.6,41.7 178.3,41.7 178.3,74.6 187.6,74.6 187.6,56.4 199.2,74.6 208.5,74.6 
		208.5,41.7 199.2,41.7 	"/>
	<polygon class="st1" points="290.4,41.7 281.1,41.7 269.6,59.9 269.6,41.7 260.2,41.7 260.2,74.6 260.2,74.6 269.6,74.6 
		269.6,74.6 275.3,65.5 281.1,74.6 290.4,74.6 280,58.1 	"/>
	<polygon class="st1" points="233.4,53.5 221.8,53.5 221.8,41.7 212.5,41.7 212.5,53.5 212.5,62.8 212.5,74.6 221.8,74.6 
		221.8,62.8 233.4,62.8 233.4,74.6 242.7,74.6 242.7,62.8 242.7,53.5 242.7,41.7 233.4,41.7 	"/>
	<polygon class="st1" points="315.3,53.5 303.7,53.5 303.7,41.7 294.4,41.7 294.4,53.5 294.4,62.8 294.4,74.6 303.7,74.6 
		303.7,62.8 315.3,62.8 315.3,74.6 324.6,74.6 324.6,62.8 324.6,53.5 324.6,41.7 315.3,41.7 	"/>
	<polygon class="st1" points="392.9,51 392.9,41.7 372.1,41.7 362.8,41.7 362.8,51 362.8,53.5 362.8,62.8 362.8,65.3 362.8,74.6 
		372.1,74.6 392.9,74.6 392.9,65.3 372.1,65.3 372.1,62.8 383,62.8 383,53.5 372.1,53.5 372.1,51 	"/>
	<polygon class="st1" points="163.1,41.7 155.4,41.7 153.7,41.7 144.1,74.6 153.5,74.6 159.2,54.8 165,74.6 174.3,74.6 164.7,41.7 	
		"/>
</g>
</svg>
