<?xml version="1.0" encoding="utf-8"?>
<!-- Generator: Adobe Illustrator 22.0.1, SVG Export Plug-In . SVG Version: 6.00 Build 0)  -->
<svg version="1.1" id="Layer_1" xmlns="http://www.w3.org/2000/svg" xmlns:xlink="http://www.w3.org/1999/xlink" x="0px" y="0px"
	 viewBox="0 0 609.6 509.4" style="enable-background:new 0 0 609.6 509.4;" xml:space="preserve">
<style type="text/css">
	.st0{clip-path:url(#SVGID_2_);fill:#CACACA;}
</style>
<g>
	<defs>
		<rect id="SVGID_1_" width="609.6" height="509.4"/>
	</defs>
	<clipPath id="SVGID_2_">
		<use xlink:href="#SVGID_1_"  style="overflow:visible;"/>
	</clipPath>
	<path class="st0" d="M165,359.4L165,359.4C165,359.4,165,359.4,165,359.4l272,0c6.7,0,12.6-4.4,14.4-10.9l60-210
		c1.3-4.5,0.4-9.4-2.4-13.2c-2.8-3.8-7.3-6-12-6H130.4l-10.7-48.3c-1.5-6.9-7.6-11.7-14.6-11.7H15c-8.3,0-15,6.7-15,15s6.7,15,15,15
		h78c1.9,8.6,51.3,230.9,54.2,243.7c-15.9,6.9-27.1,22.8-27.1,41.3c0,24.8,20.2,45,45,45h272c8.3,0,15-6.7,15-15s-6.7-15-15-15H165
		c-8.3,0-15-6.7-15-15C150,366.1,156.7,359.4,165,359.4 M477.1,149.4l-51.4,180H177l-40-180H477.1z"/>
	<path class="st0" d="M150,464.4c0,24.8,20.2,45,45,45s45-20.2,45-45s-20.2-45-45-45S150,439.6,150,464.4 M195,449.4
		c8.3,0,15,6.7,15,15s-6.7,15-15,15c-8.3,0-15-6.7-15-15S186.7,449.4,195,449.4"/>
	<path class="st0" d="M362,464.4c0,24.8,20.2,45,45,45c24.8,0,45-20.2,45-45s-20.2-45-45-45C382.2,419.4,362,439.6,362,464.4
		 M407,449.4c8.3,0,15,6.7,15,15s-6.7,15-15,15c-8.3,0-15-6.7-15-15S398.7,449.4,407,449.4"/>
</g>
</svg>
