<?xml version="1.0" encoding="utf-8"?>
<!-- Generator: Adobe Illustrator 22.0.1, SVG Export Plug-In . SVG Version: 6.00 Build 0)  -->
<svg version="1.1" id="Layer_1" xmlns="http://www.w3.org/2000/svg" xmlns:xlink="http://www.w3.org/1999/xlink" x="0px" y="0px"
	 viewBox="0 0 450 512" style="enable-background:new 0 0 450 512;" xml:space="preserve">
<style type="text/css">
	.st0{clip-path:url(#SVGID_2_);fill:#CACACA;}
</style>
<g>
	<defs>
		<rect id="SVGID_1_" width="450" height="512"/>
	</defs>
	<clipPath id="SVGID_2_">
		<use xlink:href="#SVGID_1_"  style="overflow:visible;"/>
	</clipPath>
	<path class="st0" d="M225,0C100.9,0,0,100.9,0,225v122c0,24.8,20.2,45,45,45h17.6c6.2,17.5,22.9,30,42.4,30c24.8,0,45-20.2,45-45
		V255c0-24.8-20.2-45-45-45c-19.6,0-36.2,12.5-42.4,30H45c-5.3,0-10.3,0.9-15,2.6V225c0-107.5,87.5-195,195-195s195,87.5,195,195
		v17.6c-4.7-1.7-9.7-2.6-15-2.6h-17.6c-6.2-17.5-22.9-30-42.4-30c-24.8,0-45,20.2-45,45v122c0,24.8,20.2,45,45,45
		c4.5,0,8.9-0.7,13.1-1.9c-5.6,18.5-22.8,31.9-43.1,31.9h-47.6c-6.2-17.5-22.9-30-42.4-30c-24.8,0-45,20.2-45,45
		c0,24.8,20.2,45,45,45c19.6,0,36.2-12.5,42.4-30H315c41.4,0,75-33.6,75-75v-15h15c24.8,0,45-20.2,45-45V225
		C450,100.9,349.1,0,225,0 M90,255c0-8.3,6.7-15,15-15s15,6.7,15,15v122c0,8.3-6.7,15-15,15s-15-6.7-15-15V255z M45,270h15v92H45
		c-8.3,0-15-6.7-15-15v-62C30,276.7,36.7,270,45,270 M225,482c-8.3,0-15-6.7-15-15s6.7-15,15-15s15,6.7,15,15S233.3,482,225,482
		 M360,377c0,8.3-6.7,15-15,15c-8.3,0-15-6.7-15-15V255c0-8.3,6.7-15,15-15c8.3,0,15,6.7,15,15V377z M420,347c0,8.3-6.7,15-15,15
		h-15v-92h15c8.3,0,15,6.7,15,15V347z"/>
</g>
</svg>
